
<svg width="742px" height="135px" viewBox="0 0 742 135" version="1.1" xmlns="http://www.w3.org/2000/svg" xmlns:xlink="http://www.w3.org/1999/xlink">
    <!-- Generator: Sketch 41.1 (35376) - http://www.bohemiancoding.com/sketch -->
    <title>Group</title>
    <desc>Created with Sketch.</desc>
    <defs></defs>
    <g id="Page-1" stroke="none" stroke-width="1" fill="none" fill-rule="evenodd">
        <g id="Group">
            <path d="M0,18.1943359 C0,18.1943359 33.731258,1.47290595 88.7734375,0.0931329845 C219.81339,-3.19171847 250.381265,81.3678781 463.388672,103.315789 C574.953531,114.811237 741.039062,66.8974609 741.039062,66.8974609 L741.039062,134 L0,133.714227 L0,18.1943359 Z" id="Rectangle-2" fill="#9EBFF5" opacity="0.53177472" style="mix-blend-mode: multiply;"></path>
            <path d="M5.68434189e-14,74.3144531 C5.68434189e-14,74.3144531 29.7650611,49.5283999 100.890625,56.5546875 C172.016189,63.5809751 165.891167,96.3134053 226.632812,96.3134053 C291.855469,96.3134053 299.028613,21.7807324 388.925781,14.9648438 C455.343066,9.92916989 468.55393,62.6418164 568.296875,74.1484375 C636.942602,82.0675977 741.039062,55.8515625 741.039062,55.8515625 L741.039062,134 L0,134 L5.68434189e-14,74.3144531 Z" id="Rectangle-3" fill="#A741FF" opacity="0.240729944" style="mix-blend-mode: multiply;"></path>
            <path d="M0,98.1572266 C0,98.1572266 104.257812,78.1484375 186.296875,78.1484375 C268.335938,78.1484375 310.78125,115.222656 369,104.40625 C534.365804,73.6830944 552.410156,15.5898438 625.519531,7.62890625 C698.628906,-0.33203125 741.039062,42.75 741.039062,42.75 L741.039062,134 L0,134.166016 L0,98.1572266 Z" id="Rectangle-4" fill="#9EC2FE" opacity="0.37004431" style="mix-blend-mode: multiply;"></path>
            <path d="M0,45 C0,45 62.1359299,107.911868 208.148437,109.703125 C354.160945,111.494382 436.994353,57.1871807 491.703125,51.9257812 C644.628906,37.21875 741.039062,109.703125 741.039062,109.703125 L741.039062,134 L0,134 L0,45 Z" id="Rectangle-5" fill="#5480FD" opacity="0.231809701" style="mix-blend-mode: multiply;"></path>
            <path d="M0.288085938,112.378906 C0.288085938,112.378906 81.0614612,76.8789372 194.78125,75.40625 C308.501039,73.9335628 337.203138,98.34218 458.777344,106.441406 C580.35155,114.540633 741,116.601562 741,116.601562 L741.039062,134 L0,132.889648 L0.288085938,112.378906 Z" id="Rectangle-6" fill="#A741FF" opacity="0.209188433" style="mix-blend-mode: multiply;"></path>
        </g>
    </g>
</svg>